<svg width="16" height="16" viewBox="0 0 16 16" fill="none" xmlns="http://www.w3.org/2000/svg">
<g clip-path="url(#clip0_5042_3593)">
<path d="M1.33331 1.33325H2.20409C2.3681 1.33325 2.45011 1.33325 2.5161 1.36341C2.57426 1.38999 2.62354 1.43274 2.65808 1.48655C2.69727 1.54761 2.70887 1.6288 2.73206 1.79116L3.0476 3.99992M3.0476 3.99992L3.74886 9.15419C3.83785 9.80827 3.88235 10.1353 4.03871 10.3815C4.1765 10.5984 4.37403 10.7709 4.60755 10.8782C4.87255 10.9999 5.20261 10.9999 5.86272 10.9999H11.568C12.1963 10.9999 12.5105 10.9999 12.7673 10.8869C12.9937 10.7872 13.1879 10.6265 13.3282 10.4227C13.4873 10.1917 13.5461 9.88303 13.6636 9.26576L14.5461 4.63305C14.5874 4.41579 14.6081 4.30716 14.5781 4.22225C14.5518 4.14777 14.4999 4.08504 14.4317 4.04526C14.3539 3.99992 14.2433 3.99992 14.0221 3.99992H3.0476ZM6.66665 13.9999C6.66665 14.3681 6.36817 14.6666 5.99998 14.6666C5.63179 14.6666 5.33331 14.3681 5.33331 13.9999C5.33331 13.6317 5.63179 13.3333 5.99998 13.3333C6.36817 13.3333 6.66665 13.6317 6.66665 13.9999ZM12 13.9999C12 14.3681 11.7015 14.6666 11.3333 14.6666C10.9651 14.6666 10.6666 14.3681 10.6666 13.9999C10.6666 13.6317 10.9651 13.3333 11.3333 13.3333C11.7015 13.3333 12 13.6317 12 13.9999Z" stroke="#11202F" stroke-width="1.5" stroke-linecap="round" stroke-linejoin="round"/>
</g>
<defs>
<clipPath id="clip0_5042_3593">
<rect width="16" height="16" fill="white"/>
</clipPath>
</defs>
</svg>
